<?xml version="1.0" encoding="utf-8"?>
<!-- Generator: Adobe Illustrator 16.0.0, SVG Export Plug-In . SVG Version: 6.00 Build 0)  -->
<!DOCTYPE svg PUBLIC "-//W3C//DTD SVG 1.1//EN" "http://www.w3.org/Graphics/SVG/1.1/DTD/svg11.dtd">
<svg version="1.1" id="Layer_1" xmlns="http://www.w3.org/2000/svg" xmlns:xlink="http://www.w3.org/1999/xlink" x="0px" y="0px"
	 width="247.731px" height="235.601px" viewBox="0 0 247.731 235.601" enable-background="new 0 0 247.731 235.601"
	 xml:space="preserve">
<g>
	<g>
		<path fill="#2C2C7B" d="M0.5,110.5V1h54.246h54.246L62.746,47.254C37.311,72.694,16.5,93.852,16.5,94.27
			c0,0.42,3.423,4.186,7.606,8.369l7.606,7.606l-8.297,8.341l-8.297,8.34l46.925,46.537L108.969,220H54.734H0.5V110.5z"/>
		<path fill="#2C2C7B" d="M157.99,173.01l46.982-46.99l-7.738-7.783l-7.738-7.782l7.501-7.451c4.126-4.098,7.501-8.148,7.501-9.001
			s-12.038-13.563-26.75-28.249c-14.712-14.685-35.295-35.261-45.74-45.725L113.02,1h53.74h53.74v109.5V220h-54.746h-54.746
			L157.99,173.01L157.99,173.01z"/>
		<path fill="#2C2C7B" d="M123.5,110.048v-65.44l3.25,3.164c23.445,22.824,61.75,61.207,61.75,61.875
			c0,0.476-14.625,15.484-32.5,33.354l-32.5,32.487V110.048z"/>
		<path fill="#2C2C7B" d="M64.907,142.75c-17.255-17.188-31.381-31.703-31.39-32.256C33.507,109.941,47.9,95.094,65.5,77.5
			l32-31.988v64.244C97.5,145.09,97.226,174,96.89,174S82.162,159.938,64.907,142.75z"/>
	</g>
	<rect x="117.756" y="156.607" fill="#FFFFFF" width="121.212" height="74.459"/>
	<g>
		<g>
			<path fill="#1D4477" d="M131.614,185.577c-0.46-0.063-0.923-0.103-1.375-0.102c-4.739-0.001-8.591,3.649-8.591,8.129
				c0,4.48,3.852,8.128,8.584,8.129c0.457,0,0.922-0.035,1.382-0.102c5.269-0.752,8.493-5.944,9.587-8.03
				C140.108,191.525,136.883,186.327,131.614,185.577z M134.479,194.903h-7.836v-2.525h7.836V194.903z"/>
			<path fill="#1D4477" d="M157.116,185.476c-0.451,0-0.919,0.038-1.375,0.101c-5.269,0.752-8.491,5.949-9.585,8.029
				c1.091,2.081,4.316,7.278,9.584,8.03c0.461,0.065,0.927,0.1,1.383,0.1c4.731,0,8.582-3.647,8.583-8.128
				C165.706,189.126,161.854,185.475,157.116,185.476z M160.635,194.903h-2.648l0.001,2.658h-2.532v-2.658h-2.654v-2.525h2.654
				v-2.658h2.532v2.658h2.647V194.903z"/>
			<path fill="#1D4477" d="M117.757,151.611c-4.841,0.001-8.764,3.924-8.764,8.765v66.46c0,4.84,3.923,8.765,8.763,8.765h60.605
				v-83.987L117.757,151.611z M157.123,206.193c-0.669,0.001-1.343-0.044-2.015-0.138c-5.591-0.803-9.335-4.826-11.429-7.915
				c-2.101,3.088-5.843,7.112-11.434,7.915c-0.668,0.094-1.344,0.138-2.013,0.138c-7.193,0-13.048-5.644-13.048-12.587
				c0-6.94,5.854-12.586,13.053-12.587c0.664,0.001,1.339,0.046,2.007,0.142c5.591,0.797,9.333,4.822,11.434,7.905
				c2.096-3.083,5.838-7.108,11.429-7.905c0.671-0.097,1.345-0.141,2.008-0.142c7.198,0,13.053,5.649,13.053,12.586
				C170.169,200.549,164.316,206.193,157.123,206.193z"/>
		</g>
		<g>
			<path fill="#6AA94D" d="M206.151,175.09c1.06-0.002,1.917-0.842,1.912-1.878V173.2c-0.003-1.035-0.863-1.871-1.922-1.869
				c-1.062,0.004-1.915,0.844-1.914,1.88v0.01C204.23,174.258,205.094,175.092,206.151,175.09z"/>
			<path fill="#6AA94D" d="M238.969,151.843h-60.607l0.002,83.988h60.604c4.841,0,8.765-3.924,8.764-8.764v-66.461
				C247.732,155.769,243.808,151.843,238.969,151.843z M196.694,165.388c-0.293-0.508-0.121-1.157,0.39-1.45
				c0.507-0.293,1.156-0.12,1.45,0.388l2.987,5.176c2.577-2.136,5.931-3.567,9.662-3.929h3.727c3.731,0.361,7.085,1.793,9.663,3.93
				l2.987-5.176c0.294-0.509,0.942-0.683,1.45-0.388c0.51,0.292,0.682,0.94,0.389,1.449l-3.245,5.62
				c2.22,2.436,3.569,5.497,3.613,8.836l-33.443-0.001c0.047-3.339,1.396-6.399,3.615-8.836L196.694,165.388z M193.942,203.19
				c0.001,2.05-1.662,3.707-3.709,3.707s-3.706-1.659-3.706-3.708v-15.907c0-2.05,1.661-3.708,3.706-3.708
				c2.049,0,3.709,1.659,3.71,3.707L193.942,203.19z M229.901,205.958c0,2.59-2.052,4.68-4.6,4.68l-0.181-0.001l-0.001,9.534
				c0.001,2.048-1.659,3.708-3.708,3.708c-2.048,0-3.706-1.66-3.706-3.708v-9.533l-9.315-0.001l0.001,9.534
				c-0.001,2.048-1.659,3.709-3.708,3.708c-2.047,0-3.708-1.661-3.709-3.707v-9.536l-0.181,0.002c-2.548,0-4.598-2.09-4.6-4.681
				l0.001-24.102c0.001-0.144,0.009-0.286,0.023-0.428h33.667c0.011,0.14,0.019,0.283,0.019,0.427v24.103L229.901,205.958z
				 M239.568,203.19c-0.001,2.05-1.662,3.707-3.709,3.707s-3.708-1.659-3.709-3.707v-15.907c0-2.05,1.664-3.709,3.709-3.71
				c2.049,0.001,3.709,1.66,3.708,3.708L239.568,203.19z"/>
			<path fill="#6AA94D" d="M220.474,175.09c1.06-0.002,1.915-0.843,1.912-1.878V173.2c-0.003-1.035-0.863-1.871-1.923-1.867
				c-1.061,0.002-1.917,0.843-1.914,1.878v0.009C218.552,174.257,219.413,175.092,220.474,175.09z"/>
		</g>
	</g>
</g>
</svg>
