<?xml version="1.0" encoding="utf-8"?>
<!-- Generator: Adobe Illustrator 16.0.0, SVG Export Plug-In . SVG Version: 6.00 Build 0)  -->
<!DOCTYPE svg PUBLIC "-//W3C//DTD SVG 1.1//EN" "http://www.w3.org/Graphics/SVG/1.1/DTD/svg11.dtd">
<svg version="1.1" id="Layer_1" xmlns="http://www.w3.org/2000/svg" xmlns:xlink="http://www.w3.org/1999/xlink" x="0px" y="0px"
	 width="247.73px" height="275px" viewBox="0 0 247.73 275" enable-background="new 0 0 247.73 275" xml:space="preserve">
<g>
	<g>
		<g>
			<path fill="#2C2C7B" d="M0.5,110.5V1h54.246h54.246L62.746,47.254C37.311,72.694,16.5,93.852,16.5,94.27
				c0,0.42,3.423,4.186,7.605,8.369l7.606,7.606l-8.297,8.341l-8.297,8.34l46.925,46.537L108.969,220H54.734H0.5V110.5z"/>
			<path fill="#2C2C7B" d="M157.99,173.01l46.981-46.99l-7.738-7.783l-7.737-7.782l7.501-7.451c4.126-4.098,7.501-8.148,7.501-9.001
				s-12.038-13.563-26.75-28.249c-14.712-14.685-35.295-35.261-45.74-45.725L113.02,1h53.74h53.74v109.5V220h-54.746h-54.746
				L157.99,173.01L157.99,173.01z"/>
			<path fill="#2C2C7B" d="M123.5,110.048v-65.44l3.25,3.164c23.444,22.824,61.75,61.207,61.75,61.875
				c0,0.476-14.625,15.484-32.5,33.354l-32.5,32.487V110.048z"/>
			<path fill="#2C2C7B" d="M64.907,142.75c-17.256-17.188-31.382-31.703-31.391-32.256C33.507,109.941,47.9,95.094,65.5,77.5
				l32-31.988v64.244C97.5,145.09,97.226,174,96.89,174S82.162,159.938,64.907,142.75z"/>
		</g>
		<rect x="117.756" y="156.607" fill="#FFFFFF" width="121.212" height="74.459"/>
		<g>
			<g>
				<path fill="#1D4477" d="M131.614,185.577c-0.46-0.063-0.923-0.103-1.375-0.103c-4.738,0-8.591,3.649-8.591,8.129
					c0,4.48,3.853,8.129,8.584,8.129c0.457,0,0.922-0.034,1.382-0.102c5.27-0.752,8.493-5.943,9.588-8.029
					C140.108,191.525,136.883,186.327,131.614,185.577z M134.479,194.902h-7.836v-2.524h7.836V194.902z"/>
				<path fill="#1D4477" d="M157.116,185.477c-0.451,0-0.92,0.037-1.375,0.101c-5.27,0.752-8.491,5.948-9.586,8.028
					c1.092,2.082,4.316,7.278,9.584,8.03c0.462,0.065,0.928,0.101,1.384,0.101c4.73,0,8.582-3.647,8.583-8.129
					C165.706,189.126,161.854,185.475,157.116,185.477z M160.635,194.902h-2.648l0.001,2.658h-2.531v-2.658h-2.654v-2.524h2.654
					v-2.658h2.531v2.658h2.647V194.902L160.635,194.902z"/>
				<path fill="#1D4477" d="M117.757,151.611c-4.841,0-8.764,3.924-8.764,8.765v66.46c0,4.84,3.923,8.766,8.763,8.766h60.604
					v-83.987L117.757,151.611z M157.123,206.193c-0.669,0-1.344-0.045-2.016-0.139c-5.591-0.803-9.335-4.826-11.429-7.914
					c-2.101,3.088-5.843,7.111-11.434,7.914c-0.668,0.094-1.345,0.139-2.014,0.139c-7.192,0-13.048-5.645-13.048-12.588
					c0-6.939,5.854-12.586,13.053-12.586c0.664,0,1.34,0.045,2.008,0.142c5.591,0.797,9.333,4.821,11.434,7.905
					c2.096-3.084,5.838-7.108,11.429-7.905c0.671-0.097,1.346-0.142,2.008-0.142c7.198,0,13.054,5.648,13.054,12.586
					C170.169,200.549,164.316,206.193,157.123,206.193z"/>
			</g>
			<g>
				<path fill="#6AA94D" d="M206.151,175.09c1.061-0.002,1.917-0.842,1.912-1.878V173.2c-0.003-1.035-0.862-1.871-1.922-1.869
					c-1.062,0.004-1.915,0.844-1.914,1.88v0.01C204.23,174.258,205.094,175.092,206.151,175.09z"/>
				<path fill="#6AA94D" d="M238.969,151.843h-60.607l0.002,83.988h60.604c4.841,0,8.765-3.924,8.764-8.765v-66.461
					C247.732,155.77,243.808,151.843,238.969,151.843z M196.694,165.389c-0.293-0.509-0.121-1.158,0.391-1.451
					c0.507-0.293,1.156-0.119,1.45,0.389l2.986,5.176c2.577-2.136,5.932-3.566,9.662-3.929h3.728c3.73,0.36,7.085,1.793,9.662,3.93
					l2.987-5.176c0.294-0.509,0.942-0.683,1.45-0.388c0.51,0.291,0.682,0.939,0.389,1.449l-3.245,5.619
					c2.221,2.436,3.569,5.497,3.613,8.836l-33.442-0.001c0.047-3.339,1.396-6.399,3.614-8.836L196.694,165.389z M193.942,203.189
					c0.001,2.051-1.662,3.707-3.709,3.707s-3.706-1.658-3.706-3.707v-15.907c0-2.05,1.661-3.708,3.706-3.708
					c2.05,0,3.709,1.658,3.71,3.707L193.942,203.189z M229.901,205.958c0,2.59-2.052,4.681-4.6,4.681l-0.181-0.002l-0.001,9.534
					c0.001,2.048-1.659,3.708-3.708,3.708s-3.706-1.66-3.706-3.708v-9.533l-9.315-0.001l0.001,9.534
					c-0.001,2.048-1.659,3.709-3.708,3.708c-2.047,0-3.708-1.661-3.709-3.707v-9.536l-0.181,0.002c-2.548,0-4.599-2.09-4.601-4.681
					l0.001-24.102c0.001-0.145,0.01-0.287,0.023-0.429h33.667c0.011,0.14,0.019,0.283,0.019,0.427v24.104L229.901,205.958z
					 M239.568,203.189c-0.001,2.051-1.662,3.707-3.709,3.707s-3.708-1.658-3.709-3.707v-15.906c0-2.051,1.664-3.709,3.709-3.71
					c2.05,0.001,3.709,1.659,3.708,3.708L239.568,203.189z"/>
				<path fill="#6AA94D" d="M220.474,175.09c1.061-0.002,1.915-0.843,1.912-1.878V173.2c-0.003-1.035-0.863-1.871-1.923-1.867
					c-1.062,0.002-1.917,0.843-1.914,1.878v0.009C218.552,174.257,219.413,175.092,220.474,175.09z"/>
			</g>
		</g>
	</g>
	<g>
		<path fill="#6AA94D" d="M17.167,255.201h6V270.8c0,0.45,0.3,0.75,1.05,0.75h8.1c0.75,0,1.051-0.3,1.051-0.75v-15.599h6v15.749
			c0,2.7-2.101,4.05-5.399,4.05h-11.4c-3.3,0-5.398-1.35-5.398-4.05v-15.749H17.167z"/>
		<path fill="#6AA94D" d="M46.567,255.201h6.301l9.898,12.389v-12.389h5.999V275h-6.299l-9.9-12.391V275h-5.999V255.201z"/>
		<path fill="#6AA94D" d="M75.967,255.201h5.999V275h-5.999V255.201z"/>
		<path fill="#6AA94D" d="M89.166,255.201h7.05l6.9,14.429l6.898-14.429h7.05V275h-6v-10.529L106.025,275h-5.818l-5.04-10.529V275
			h-6V255.201z"/>
		<path fill="#1D4477" d="M124.266,255.201h20.699v3.449h-14.699v3.899h13.199V266h-13.199v5.55h14.699V275h-20.699V255.201z"/>
		<path fill="#1D4477" d="M150.066,255.201h23.999v3.449h-8.999V275h-6v-16.35h-9V255.201L150.066,255.201z"/>
		<path fill="#1D4477" d="M179.766,255.201h16.8c3.301,0,5.399,1.35,5.399,4.05V263c0,2.7-1.95,3.9-5.1,4.051l6,7.949h-6.45
			l-6-7.949h-4.649V275h-6V255.201z M194.915,263.602c0.75,0,1.05-0.301,1.05-0.75V259.4c0-0.449-0.3-0.75-1.05-0.75h-9.149v4.951
			H194.915z"/>
		<path fill="#1D4477" d="M208.865,259.251c0-2.7,2.101-4.05,5.399-4.05h11.399c3.3,0,5.398,1.35,5.398,4.05v11.699
			c0,2.7-2.1,4.05-5.398,4.05h-11.399c-3.3,0-5.399-1.35-5.399-4.05V259.251z M215.915,271.55h8.1c0.75,0,1.05-0.3,1.05-0.75V259.4
			c0-0.45-0.3-0.75-1.05-0.75h-8.1c-0.75,0-1.051,0.3-1.051,0.75V270.8C214.865,271.25,215.165,271.55,215.915,271.55z"/>
		<path fill="#1D4477" d="M218.692,248.59h2.544l6.867,3.824h-2.33l-5.809-1.664l-5.81,1.664h-2.329L218.692,248.59z"/>
	</g>
</g>
</svg>
