<?xml version="1.0" encoding="utf-8"?>
<!-- Generator: Adobe Illustrator 16.0.0, SVG Export Plug-In . SVG Version: 6.00 Build 0)  -->
<!DOCTYPE svg PUBLIC "-//W3C//DTD SVG 1.1//EN" "http://www.w3.org/Graphics/SVG/1.1/DTD/svg11.dtd">
<svg version="1.1"
	 id="svg2" xmlns:inkscape="http://www.inkscape.org/namespaces/inkscape" xmlns:rdf="http://www.w3.org/1999/02/22-rdf-syntax-ns#" xmlns:sodipodi="http://sodipodi.sourceforge.net/DTD/sodipodi-0.dtd" xmlns:svg="http://www.w3.org/2000/svg" xmlns:dc="http://purl.org/dc/elements/1.1/" xmlns:cc="http://creativecommons.org/ns#" sodipodi:docname="Sao_Paulo_Metro.svg" inkscape:version="0.47pre4 r22446"
	 xmlns="http://www.w3.org/2000/svg" xmlns:xlink="http://www.w3.org/1999/xlink" x="0px" y="0px" width="838px" height="219px"
	 viewBox="0 0 838 219" enable-background="new 0 0 838 219" xml:space="preserve">
<sodipodi:namedview  inkscape:zoom="0.60044395" pagecolor="#ffffff" borderopacity="1" inkscape:cx="450.5" inkscape:cy="138.5" bordercolor="#666666" gridtolerance="10" objecttolerance="10" showgrid="false" guidetolerance="10" id="namedview4" inkscape:pageopacity="0" inkscape:pageshadow="2" inkscape:window-width="972" inkscape:window-height="828" inkscape:window-x="0" inkscape:window-y="25" inkscape:window-maximized="0" inkscape:current-layer="svg2">
	</sodipodi:namedview>
<path id="path2842" fill="#2C2C7B" d="M-0.5,109.5V0h54.246h54.246L61.746,46.254C36.311,71.694,15.5,92.852,15.5,93.27
	c0,0.42,3.423,4.186,7.606,8.369l7.606,7.606l-8.297,8.341l-8.297,8.34l46.925,46.537L107.969,219H53.734H-0.5V109.5z
	 M156.99,172.01l46.982-46.99l-7.738-7.783l-7.738-7.783l7.501-7.451c4.126-4.098,7.501-8.148,7.501-9.001
	s-12.038-13.563-26.75-28.249c-14.712-14.685-35.295-35.261-45.74-45.725L112.02,0h53.74h53.74v109.5V219h-54.746h-54.746
	L156.99,172.01L156.99,172.01z M241.5,109.5V0H540h298.5v109.5V219H540H241.5V109.5z M777.578,175.059
	c27.292-8.431,43.23-39.309,36.32-70.36c-2.466-11.073-6.892-19.183-14.896-27.29c-8.887-9-16.694-12.975-29.91-15.223
	c-8.804-1.498-10.358-1.501-18.91-0.047c-13.195,2.245-21.424,6.403-30.213,15.27C708.197,89.284,703.5,101.288,703.5,119.5
	c0,11.917,1.97,20.577,6.787,29.842c6.971,13.407,20.609,23.641,36.213,27.166C754.888,178.404,768.854,177.752,777.578,175.059z
	 M752,158.129c-9.149-2.395-16.735-9.131-21.34-18.953c-2.473-5.273-2.659-6.631-2.646-19.176
	c0.019-15.727,1.726-21.583,8.554-29.341c8.971-10.191,24.082-13.245,36.2-7.316c6.579,3.22,11.472,8.663,15.302,17.029
	c3.127,6.831,4.401,21.862,2.576,30.374c-2.527,11.791-9.563,21.466-18.358,25.25C766.659,158.417,756.989,159.434,752,158.129
	L752,158.129z M288.753,174.25c0.204-0.412,0.118-18.166-0.191-39.452c-0.309-21.286-0.288-38.386,0.045-38
	c0.445,0.519,18.7,47.916,29.638,76.952c0.33,0.877,3.26,1.25,9.829,1.25c7.915,0,9.503-0.271,10.301-1.764
	c0.52-0.969,7.326-18.633,15.127-39.25s14.298-37.604,14.438-37.75c0.14-0.144,0.035,17.52-0.231,39.25L367.221,175h10.141H387.5
	v-56V63h-12.475h-12.475l-1.389,2.75c-0.764,1.513-8.245,20.3-16.626,41.75s-15.573,39.357-15.982,39.795
	c-0.407,0.436-6.657-14.414-13.885-33C307.441,95.708,300.025,76.675,298.19,72l-3.338-8.5h-12.928H269l-0.259,55.75L268.483,175
	h9.948C283.904,175,288.549,174.662,288.753,174.25z M487,165.5v-9l-26.75-0.266l-26.75-0.268v-14.982V126h23.037h23.038
	l-0.288-9.25L479,107.5l-22.75-0.27l-22.75-0.269V94.48V82h26.537h26.538l-0.288-9.25L486,63.5h-37h-37l-0.26,54.5
	c-0.144,29.975-0.042,55.068,0.224,55.762c0.379,0.992,8.476,1.207,37.76,1L487,174.5V165.5z M553.74,128.75L554,82.5l15.75-0.275
	l15.75-0.274v-9.475V63h-43h-43v9.5V82h16h16v46.5V175h10.99h10.99L553.74,128.75z M622.5,152v-23l15.75,0.1
	c8.662,0.055,16.834,0.403,18.16,0.773c1.325,0.371,3.341,1.922,4.479,3.445c1.826,2.445,2.138,4.68,2.642,18.977
	c0.442,12.607,0.954,16.928,2.296,19.455l1.727,3.25h12.975c7.136,0,12.975-0.277,12.975-0.618c0-0.34-1.305-2.104-2.9-3.921
	c-3.773-4.299-5.1-10.75-5.1-24.828c0-13.513-1.711-20.371-5.979-23.962c-1.62-1.364-3.525-2.722-4.233-3.017
	c-0.916-0.383-0.71-0.896,0.713-1.775c6.603-4.084,10.746-11.795,11.31-21.045c0.982-16.111-7.67-26.48-25.81-30.928
	c-3.92-0.961-13.397-1.357-33-1.377L601,63.5l-0.26,54.5c-0.144,29.975-0.045,55.063,0.219,55.75c0.341,0.891,3.506,1.25,11.01,1.25
	H622.5V152z M622.5,95.98v-14.22l15.75,0.447c17.241,0.49,21.313,1.513,25.082,6.306c2.693,3.424,2.966,11.34,0.52,15.073
	c-3.283,5.013-6.485,5.824-24.602,6.235l-16.75,0.38V95.98L622.5,95.98z M795.401,59.443c3.986-6.758,3.867-6.889-16.815-18.693
	C768.225,34.837,758.841,30,757.733,30c-1.788,0-37.259,19.748-39.702,22.104C716.77,53.32,721.442,62,723.359,62
	c0.771,0,8.614-4.125,17.432-9.167s16.521-9.146,17.12-9.122c0.599,0.025,8.513,4.375,17.587,9.667
	C784.571,58.67,792.289,63,792.648,63C793.009,63,794.247,61.399,795.401,59.443z M122.5,109.048v-65.44l3.25,3.164
	c23.446,22.824,61.75,61.207,61.75,61.875c0,0.476-14.625,15.484-32.5,33.354l-32.5,32.488V109.048z M63.907,141.75
	c-17.255-17.188-31.381-31.703-31.39-32.256C32.507,108.941,46.9,94.094,64.5,76.5l32-31.988v64.244
	C96.5,144.09,96.226,173,95.89,173S81.162,158.938,63.907,141.75z"/>
</svg>
