<?xml version="1.0" encoding="utf-8"?>
<!-- Generator: Adobe Illustrator 16.0.0, SVG Export Plug-In . SVG Version: 6.00 Build 0)  -->
<!DOCTYPE svg PUBLIC "-//W3C//DTD SVG 1.1//EN" "http://www.w3.org/Graphics/SVG/1.1/DTD/svg11.dtd">
<svg version="1.1" id="Layer_1" xmlns="http://www.w3.org/2000/svg" xmlns:xlink="http://www.w3.org/1999/xlink" x="0px" y="0px"
	 width="196px" height="143.826px" viewBox="0 0 196 143.826" enable-background="new 0 0 196 143.826" xml:space="preserve">
<g>
	<g>
		<path fill="#1D4477" d="M31.959,47.656c-0.65-0.088-1.305-0.143-1.944-0.143c-6.694,0-12.136,5.157-12.136,11.485
			c0,6.329,5.441,11.483,12.128,11.483c0.646,0,1.302-0.049,1.95-0.142c7.443-1.063,12-8.4,13.545-11.346
			C43.958,56.059,39.4,48.717,31.959,47.656z M36.005,60.832H24.934v-3.567h11.071V60.832z"/>
		<path fill="#1D4477" d="M67.985,47.513c-0.638,0-1.298,0.055-1.943,0.143C58.599,48.717,54.047,56.059,52.502,59
			c1.541,2.938,6.097,10.28,13.54,11.343c0.651,0.093,1.31,0.142,1.952,0.142c6.685,0,12.126-5.154,12.126-11.483
			C80.12,52.671,74.677,47.513,67.985,47.513z M72.957,60.832h-3.742v3.755h-3.577v-3.755h-3.749v-3.567h3.749v-3.756h3.577v3.756
			h3.742V60.832z"/>
		<path fill="#1D4477" d="M12.381-0.326C5.543-0.326,0,5.216,0,12.055v93.89c0,6.836,5.543,12.381,12.381,12.381H98V-0.326H12.381z
			 M67.994,76.782c-0.945,0-1.897-0.063-2.845-0.195c-7.899-1.133-13.187-6.817-16.146-11.182
			c-2.968,4.363-8.254,10.049-16.153,11.182c-0.943,0.133-1.899,0.195-2.843,0.195c-10.162,0-18.433-7.974-18.433-17.782
			c0-9.804,8.271-17.781,18.44-17.781c0.938,0,1.892,0.063,2.835,0.2c7.899,1.126,13.186,6.812,16.153,11.168
			c2.96-4.356,8.247-10.042,16.146-11.168c0.947-0.138,1.899-0.2,2.836-0.2c10.169,0,18.44,7.979,18.44,17.781
			C86.426,68.808,78.156,76.782,67.994,76.782z"/>
	</g>
	<g>
		<path fill="#6AA94D" d="M137.26,32.841c1.496-0.003,2.707-1.19,2.701-2.652v-0.016c-0.004-1.463-1.221-2.645-2.717-2.641
			c-1.498,0.005-2.705,1.192-2.703,2.655v0.014C134.545,31.664,135.764,32.844,137.26,32.841z"/>
		<path fill="#6AA94D" d="M183.619,0H98v118.652h85.619c6.838,0,12.381-5.543,12.381-12.381V12.381C196,5.545,190.457,0,183.619,0z
			 M123.898,19.135c-0.414-0.718-0.17-1.635,0.549-2.049c0.718-0.414,1.635-0.169,2.049,0.549l4.221,7.31
			c3.641-3.016,8.379-5.04,13.65-5.549h5.266c5.271,0.509,10.01,2.533,13.65,5.55l4.221-7.311c0.414-0.718,1.331-0.963,2.049-0.549
			c0.719,0.414,0.963,1.331,0.549,2.049l-4.584,7.939c3.135,3.44,5.041,7.767,5.105,12.484h-47.248
			c0.066-4.719,1.973-9.044,5.107-12.485L123.898,19.135z M120.012,72.539c0,2.895-2.348,5.238-5.24,5.238
			c-2.892,0-5.237-2.345-5.237-5.238V50.066c0-2.895,2.346-5.239,5.237-5.239c2.893,0,5.24,2.345,5.24,5.238V72.539z
			 M170.811,76.448c0,3.661-2.899,6.612-6.498,6.612h-0.256v13.468c0,2.894-2.346,5.238-5.24,5.238
			c-2.891,0-5.235-2.346-5.235-5.238V83.06h-13.16v13.468c0,2.894-2.344,5.238-5.237,5.238s-5.24-2.346-5.24-5.238V83.06h-0.256
			c-3.599,0-6.496-2.951-6.496-6.612V42.399c0-0.203,0.014-0.404,0.033-0.604h47.563c0.016,0.198,0.025,0.4,0.025,0.604v34.049
			H170.811z M184.467,72.539c0,2.895-2.346,5.238-5.238,5.238c-2.892,0-5.24-2.345-5.24-5.238V50.066
			c0-2.895,2.349-5.239,5.24-5.239c2.893,0,5.238,2.345,5.238,5.238V72.539z"/>
		<path fill="#6AA94D" d="M157.49,32.841c1.498-0.003,2.707-1.19,2.703-2.652v-0.016c-0.004-1.463-1.221-2.645-2.717-2.641
			c-1.498,0.005-2.709,1.192-2.703,2.655v0.014C154.777,31.664,155.994,32.844,157.49,32.841z"/>
	</g>
</g>
<g>
	<path fill="#6AA94D" d="M1.531,129.303h4.401v11.442c0,0.33,0.22,0.55,0.77,0.55h5.941c0.55,0,0.77-0.22,0.77-0.55v-11.442h4.401
		v11.552c0,1.98-1.541,2.971-3.961,2.971H5.492c-2.42,0-3.961-0.99-3.961-2.971V129.303z"/>
	<path fill="#6AA94D" d="M23.09,129.303h4.621l7.261,9.088v-9.088h4.401v14.522h-4.621l-7.261-9.087v9.087H23.09V129.303z"/>
	<path fill="#6AA94D" d="M44.65,129.303h4.401v14.522H44.65V129.303z"/>
	<path fill="#6AA94D" d="M54.33,132.274c0-1.98,1.541-2.971,3.961-2.971h11.221v2.53H59.501c-0.55,0-0.77,0.221-0.77,0.551v8.361
		c0,0.33,0.22,0.55,0.77,0.55h10.011v2.53H58.291c-2.42,0-3.961-0.99-3.961-2.971V132.274z"/>
	<path fill="#6AA94D" d="M74.35,129.303h4.4v11.992h10.782v2.53H74.35V129.303z"/>
	<path fill="#1D4477" d="M93.491,129.303h4.4v11.442c0,0.33,0.221,0.55,0.771,0.55h5.939c0.551,0,0.771-0.22,0.771-0.55v-11.442h4.4
		v11.552c0,1.98-1.541,2.971-3.961,2.971h-8.361c-2.421,0-3.961-0.99-3.961-2.971V129.303z"/>
	<path fill="#1D4477" d="M114.83,141.296h11.111c0.551,0,0.771-0.22,0.771-0.55v-2.971c0-0.33-0.221-0.55-0.771-0.55h-7.15
		c-2.42,0-3.961-0.99-3.961-2.971v-1.98c0-1.98,1.541-2.971,3.961-2.971h11.221v2.53h-10.01c-0.551,0-0.771,0.221-0.771,0.551v1.76
		c0,0.33,0.221,0.551,0.771,0.551h7.15c2.42,0,3.961,0.989,3.961,2.97v3.19c0,1.98-1.541,2.971-3.961,2.971H114.83V141.296z"/>
	<path fill="#1D4477" d="M134.41,129.303h17.602v2.53h-6.602v11.992h-4.4v-11.992h-6.6V129.303z"/>
	<path fill="#1D4477" d="M156.189,129.303h15.184v2.53H160.59v2.861h9.682v2.53h-9.682v4.07h10.783v2.53h-15.184V129.303z"/>
	<path fill="#1D4477" d="M176.209,129.303h12.322c2.42,0,3.961,0.99,3.961,2.971v2.751c0,1.979-1.43,2.86-3.74,2.97l4.4,5.831h-4.73
		l-4.4-5.831h-3.412v5.831h-4.4V129.303z M187.32,135.465c0.551,0,0.771-0.22,0.771-0.55v-2.53c0-0.33-0.221-0.551-0.771-0.551
		h-6.711v3.631H187.32z"/>
</g>
</svg>
